HIERARCHY
ROOT root
{
	OFFSET	0	13.1	24.9
	CHANNELS 6  Xposition Yposition Zposition Xrotation Yrotation Zrotation
	JOINT spine_1
	{
		OFFSET	0	9.99999	0
		CHANNELS 3  Xrotation Yrotation Zrotation
		JOINT spine_2
		{
			OFFSET	0	112	-10
			CHANNELS 3  Xrotation Yrotation Zrotation
			JOINT spine_3
			{
				OFFSET	0	206.5	19.3
				CHANNELS 3  Xrotation Yrotation Zrotation
				JOINT spine_4
				{
					OFFSET	0	110.4	14.6
					CHANNELS 3  Xrotation Yrotation Zrotation
					JOINT neck_1
					{
						OFFSET	0	71.8	-50.3
						CHANNELS 3  Xrotation Yrotation Zrotation
						JOINT neck_2
						{
							OFFSET	0	86.2	-25.8
							CHANNELS 3  Xrotation Yrotation Zrotation
							JOINT head_ee
							{
								OFFSET	0	179.8	-8.7
								CHANNELS 3  Xrotation Yrotation Zrotation
								End Site
								{
									OFFSET	1	0	0
								}
							}
						}
					}
					JOINT left_clavicle
					{
						OFFSET	-43.2	22.4	-70.8
						CHANNELS 3  Xrotation Yrotation Zrotation
						JOINT left_shoulder
						{
							OFFSET	-93.9	-5.79999	48.7
							CHANNELS 3  Xrotation Yrotation Zrotation
							JOINT left_elbow
							{
								OFFSET	-291.4	-30.8	15.2
								CHANNELS 3  Xrotation Yrotation Zrotation
								JOINT left_lowarm_twist
								{
									OFFSET	-110.7	-3.89999	13.6
									CHANNELS 3  Xrotation Yrotation Zrotation
									JOINT left_hand
									{
										OFFSET	-110.7	-3.89999	13.6
										CHANNELS 3  Xrotation Yrotation Zrotation
										JOINT left_ee
										{
											OFFSET	-80.8	-5.10001	12.1
											CHANNELS 3  Xrotation Yrotation Zrotation
											End Site
											{
												OFFSET	1	0	0
											}
										}
									}
								}
							}
						}
					}
					JOINT right_clavicle
					{
						OFFSET	43.2	22.4	-70.8
						CHANNELS 3  Xrotation Yrotation Zrotation
						JOINT right_shoulder
						{
							OFFSET	93.9	-5.79999	48.7
							CHANNELS 3  Xrotation Yrotation Zrotation
							JOINT right_elbow
							{
								OFFSET	291.4	-30.8	15.2
								CHANNELS 3  Xrotation Yrotation Zrotation
								JOINT right_lowarm_twist
								{
									OFFSET	110.7	-3.89999	13.6
									CHANNELS 3  Xrotation Yrotation Zrotation
									JOINT right_hand
									{
										OFFSET	110.7	-3.89999	13.6
										CHANNELS 3  Xrotation Yrotation Zrotation
										JOINT right_ee
										{
											OFFSET	80.8	-5.10001	12.1
											CHANNELS 3  Xrotation Yrotation Zrotation
											End Site
											{
												OFFSET	1	0	0
											}
										}
									}
								}
							}
						}
					}
				}
			}
		}
	}
	JOINT left_hip
	{
		OFFSET	-82.8	-127.5	0.300001
		CHANNELS 3  Xrotation Yrotation Zrotation
		JOINT left_knee
		{
			OFFSET	-28.2	-396.7	2.2
			CHANNELS 3  Xrotation Yrotation Zrotation
			JOINT left_ankle
			{
				OFFSET	-11.7	-411.3	35.4
				CHANNELS 3  Xrotation Yrotation Zrotation
				JOINT left_toes
				{
					OFFSET	0	-60	-88.6
					CHANNELS 3  Xrotation Yrotation Zrotation
					JOINT left_foot_ee
					{
						OFFSET	-22.5	-16.5	-42.2
						CHANNELS 3  Xrotation Yrotation Zrotation
						End Site
						{
							OFFSET	1	0	0
						}
					}
				}
			}
		}
	}
	JOINT right_hip
	{
		OFFSET	82.8	-127.5	0.300001
		CHANNELS 3  Xrotation Yrotation Zrotation
		JOINT right_knee
		{
			OFFSET	28.2	-396.7	2.2
			CHANNELS 3  Xrotation Yrotation Zrotation
			JOINT right_ankle
			{
				OFFSET	11.7	-411.3	35.4
				CHANNELS 3  Xrotation Yrotation Zrotation
				JOINT right_toes
				{
					OFFSET	0	-60	-88.6
					CHANNELS 3  Xrotation Yrotation Zrotation
					JOINT right_foot_ee
					{
						OFFSET	22.5	-16.5	-42.2
						CHANNELS 3  Xrotation Yrotation Zrotation
						End Site
						{
							OFFSET	1	0	0
						}
					}
				}
			}
		}
	}
}
MOTION
Frames: 11
Frame Time: 0.02
3177.02 653.055 -1669.29 -11.5239 75.6905 13.588 0.981851 0.233683 -0.117349 0.981827 0.240677 -0.102241 0.981383 0.255906 -0.0537628 0.981462 0.244204 -0.0935039 -3.41124 19.4668 -0.406732 -2.85382 35.893 2.41172 -0.0 0.0 -0.0 3.92575 24.3526 8.10816 -35.6129 12.0636 69.2082 0.771867 -20.9248 0.142535 58.3083 -1.62566 -6.9497 -8.17941 28.63 -35.8995 -0.0 0.0 -0.0 11.342 12.0932 -22.7792 23.1168 31.1972 -77.2233 2.02565 45.0933 -0.841056 38.1045 0.254361 4.77242 4.59183 -22.5519 -39.1606 0.0 0.0 0.0 31.0562 15.3598 -14.2091 -1.63932 0.0640192 0.243424 2.37032 -17.2557 -0.382247 -31.2009 0.0 0.0 -0.0 0.0 -0.0 30.0111 -79.6914 42.9725 4.44807 0.20856 0.650422 42.9465 -23.7141 5.39846 -16.6698 0.0 0.0 0.0 0.0 0.0 
3156.91 652.146 -1665.07 -13.2838 73.695 14.9304 1.17317 0.266903 0.193176 1.17316 0.254069 0.209768 1.1741 0.209562 0.25424 1.1741 0.247084 0.217953 -1.97203 20.0018 0.638763 -1.22028 35.7599 3.11533 -0.0 0.0 -0.0 4.34506 25.2259 8.66184 -34.2045 13.6672 67.9602 0.84677 -22.7561 0.170405 56.9615 -1.51101 -6.82066 -8.46371 28.5695 -38.0345 -0.0 0.0 -0.0 11.5266 11.8795 -23.198 21.5889 30.9251 -77.5801 2.04101 45.3097 -0.851956 37.9269 0.245849 4.75136 4.73272 -22.7382 -40.312 0.0 0.0 0.0 31.2221 16.8671 -13.7621 -1.89747 0.0734637 0.281916 3.64517 -14.2266 -0.571896 -30.1664 0.0 0.0 -0.0 0.0 -0.0 35.8194 -79.0545 48.7865 5.82983 0.283582 0.849034 42.2803 -23.1788 5.32209 -17.7279 0.0 0.0 0.0 0.0 0.0 
3131.81 652.472 -1662.44 -10.5439 72.7219 11.8633 1.28336 0.318669 0.238219 1.28334 0.302865 0.258014 1.28473 0.248898 0.310401 1.28471 0.294796 0.267197 -2.66894 19.9758 2.41457 -2.0856 34.5054 5.19988 -0.0 0.0 -0.0 4.74259 25.1831 9.1974 -33.6436 14.0265 67.0914 0.81969 -22.0995 0.160073 57.5215 -1.55831 -6.87464 -8.248 27.9723 -37.1745 -0.0 0.0 -0.0 11.6044 12.3876 -23.3655 18.5656 32.5069 -77.1044 1.97458 44.3622 -0.805117 35.126 0.120316 4.41602 4.40149 -22.4794 -37.6631 0.0 0.0 0.0 29.7839 17.4363 -13.8704 -4.3838 0.155507 0.654645 5.68715 -14.6236 -0.888897 -28.1885 0.0 0.0 -0.0 0.0 -0.0 42.2167 -80.5513 56.1261 7.89073 0.40435 1.14183 42.8388 -23.1548 5.37116 -15.8644 0.0 0.0 0.0 0.0 0.0 
3107.32 651.377 -1662.15 -11.0326 71.938 12.6588 1.38525 0.241433 0.398062 1.38531 0.215615 0.412618 1.3869 0.134905 0.445582 1.38668 0.203583 0.418685 -0.19558 20.4038 1.77322 0.757393 35.1477 3.84623 -0.0 0.0 -0.0 4.91527 25.1033 9.43337 -32.8442 14.634 66.175 0.832748 -22.4169 0.165019 58.601 -1.65097 -6.97739 -7.98923 28.8432 -34.3176 -0.0 0.0 -0.0 11.349 12.3233 -22.791 16.1798 35.1224 -77.7033 2.04479 45.3627 -0.854647 32.1464 0.0049585 4.0531 4.28102 -25.2207 -37.14 0.0 0.0 0.0 28.7862 17.675 -14.3933 -5.90344 0.197655 0.884046 11.0077 -14.3858 -1.6838 -23.6446 0.0 0.0 -0.0 0.0 -0.0 45.7057 -80.6004 60.7495 7.80791 0.399294 1.13015 42.0167 -21.5547 5.25121 -15.482 0.0 0.0 0.0 0.0 0.0 
3087.45 654.998 -1657.45 -10.3486 72.2458 11.2571 1.70072 0.0920492 0.371155 1.70079 0.0682453 0.37626 1.70125 -0.00100735 0.382398 1.70105 0.0593974 0.377758 -3.6718 20.4278 4.06263 -3.21731 34.3373 7.25711 -0.0 0.0 -0.0 5.33141 24.0602 10.0495 -31.5936 14.5456 65.58 0.771514 -20.9161 0.142409 57.9436 -1.5943 -6.91501 -8.28765 29.0724 -36.145 -0.0 0.0 -0.0 11.4018 12.4445 -22.9077 13.6695 34.6493 -77.5862 1.78559 41.4898 -0.676365 30.3845 -0.0543109 3.83588 3.95969 -25.9563 -34.8884 0.0 0.0 0.0 27.0906 18.9355 -12.9472 -6.53877 0.213468 0.980261 12.9076 -14.1703 -1.95581 -23.3662 0.0 0.0 -0.0 0.0 -0.0 45.9682 -80.1346 62.1165 7.47588 0.379192 1.08324 42.4335 -22.0696 5.30275 -15.029 0.0 0.0 0.0 0.0 0.0 
3049.96 652.479 -1654.04 -6.33072 71.1356 6.92904 1.83088 0.368502 0.366392 1.83088 0.344441 0.389098 1.83326 0.269332 0.444406 1.83314 0.336137 0.396294 -3.01509 20.3632 4.31985 -2.49045 33.8402 7.32951 -0.0 0.0 -0.0 5.51243 25.0377 10.2466 -31.4294 14.2067 63.8915 0.829419 -22.3361 0.163752 57.7492 -1.57769 -6.89645 -7.61058 27.744 -32.9205 -0.0 0.0 -0.0 11.1938 12.6455 -22.4357 9.15378 35.3507 -76.9266 1.75174 40.9464 -0.654058 28.8966 -0.0991387 3.65112 3.96379 -22.5883 -34.3924 0.0 0.0 0.0 24.5164 19.333 -13.1013 -14.3305 0.320083 2.17019 27.6303 -18.1973 -3.98919 -23.1129 0.0 0.0 -0.0 0.0 -0.0 53.9799 -78.6041 72.6137 8.41927 0.437019 1.21622 38.0829 -25.4213 4.99315 -15.9995 0.0 0.0 0.0 0.0 0.0 
3012.79 649.97 -1651.57 -2.66955 69.8943 2.87773 1.95168 0.384557 0.604482 1.95181 0.345314 0.627726 1.95565 0.228987 0.678856 1.95516 0.333324 0.634175 -2.42879 20.044 4.6838 -1.8679 32.8036 7.51528 -0.0 0.0 -0.0 5.14092 24.3889 9.77094 -30.9676 13.6257 63.842 0.818983 -22.0823 0.159807 58.8041 -1.66862 -6.99652 -7.25335 28.0369 -30.2174 -0.0 0.0 -0.0 11.2178 12.3415 -22.4958 5.70036 36.612 -76.959 1.61992 38.7427 -0.569587 28.9925 -0.0963945 3.66306 3.72114 -26.0524 -33.2175 0.0 0.0 0.0 19.3559 20.3618 -11.0599 -13.7498 0.317729 2.08112 33.451 -14.6629 -4.52803 -19.1822 0.0 0.0 -0.0 0.0 -0.0 64.8369 -78.2008 83.7862 10.2279 0.553993 1.46848 39.2871 -26.6258 5.15353 -12.4731 0.0 0.0 0.0 0.0 0.0 
2985.01 649.482 -1645.94 -0.541251 69.741 1.30513 2.31081 0.33298 0.328521 2.31082 0.3114 0.349043 2.31274 0.247314 0.397035 2.31265 0.306914 0.352994 -3.10695 19.8882 2.39551 -2.5833 34.4679 5.29733 -0.0 0.0 -0.0 5.09483 24.4832 9.7035 -30.4375 13.6374 63.6309 0.873208 -23.3912 0.180766 59.0204 -1.6875 -7.01683 -7.35496 28.7058 -30.2036 -0.0 0.0 -0.0 10.7874 10.3277 -21.5635 1.62921 35.8214 -76.6121 1.50806 36.7592 -0.501095 29.1643 -0.0914261 3.68445 3.68832 -26.8922 -33.1097 0.0 0.0 0.0 16.9351 22.7035 -11.0895 -14.7867 0.321299 2.24017 36.7647 -18.6017 -4.99365 -18.68 0.0 0.0 -0.0 0.0 -0.0 65.2277 -76.4931 84.7705 8.95106 0.470582 1.29077 37.5938 -27.2823 5.00558 -12.3541 0.0 0.0 0.0 0.0 0.0 
2962.61 653.254 -1643.43 2.75928 69.7355 -2.3964 1.85945 0.344837 0.7058 1.85968 0.299228 0.726311 1.86352 0.164972 0.768014 1.86281 0.284192 0.732324 -4.16974 19.8485 2.55273 -3.78705 34.5327 5.77164 -0.0 0.0 -0.0 5.3929 24.7887 10.0972 -29.4415 11.4574 62.1583 0.856245 -22.9844 0.174087 58.48 -1.64049 -6.96596 -6.79738 28.9464 -26.4174 -0.0 0.0 -0.0 10.8115 9.3217 -21.6219 -0.0521236 36.2081 -76.9354 1.36643 34.0918 -0.418975 24.0406 -0.211796 3.04123 3.40967 -30.5856 -31.7068 0.0 0.0 0.0 13.1227 20.6908 -8.98449 -13.5368 0.316638 2.04846 37.5307 -15.4116 -4.95427 -15.7121 0.0 0.0 -0.0 0.0 -0.0 68.3135 -75.2941 87.74 8.15225 0.420429 1.17868 38.3291 -26.9036 5.06742 -11.1371 0.0 0.0 0.0 0.0 0.0 
2938.68 660.648 -1641.1 6.371 71.1316 -5.82493 1.70186 0.233603 0.637611 1.70206 0.192558 0.651183 1.70429 0.071517 0.675279 1.7037 0.177265 0.655511 -4.36866 19.2899 2.56434 -4.03529 33.5353 5.75625 -0.0 0.0 -0.0 5.56857 24.9274 10.3295 -26.9367 11.2933 61.2314 0.974975 -25.7789 0.223115 58.1551 -1.61246 -6.93515 -7.06137 28.539 -28.4728 -0.0 0.0 -0.0 10.8702 6.23212 -21.7222 -3.60884 35.7328 -75.5488 1.12944 29.2257 -0.294477 23.1933 -0.226137 2.93394 3.13437 -26.7899 -29.3668 0.0 0.0 0.0 11.6493 20.7929 -8.79737 -17.6234 0.316357 2.67532 37.5026 -15.6075 -4.958 -13.4748 0.0 0.0 -0.0 0.0 -0.0 58.2352 -77.3784 76.8078 8.83196 0.463005 1.2741 42.2431 -24.4888 5.36075 -6.94868 0.0 0.0 0.0 0.0 0.0 
2925.98 666.024 -1642.31 7.11665 70.8558 -6.89024 1.90397 0.111385 0.721429 1.90426 0.065254 0.727055 1.90509 -0.0648795 0.727088 1.90436 0.0507616 0.72821 -4.42074 19.5129 1.46434 -4.06636 34.7827 4.68239 -0.0 0.0 -0.0 5.73545 23.8335 10.6252 -23.26 10.1645 60.2918 0.982423 -25.95 0.226364 58.5393 -1.64562 -6.97156 -7.00574 29.2265 -27.4502 -0.0 0.0 -0.0 11.0791 4.12394 -22.1159 -6.56072 35.437 -74.0746 1.02224 26.8566 -0.244072 21.4992 -0.250044 2.71888 2.9962 -27.7935 -28.64 0.0 0.0 0.0 9.95509 21.0646 -7.74652 -17.3588 0.317729 2.63475 38.511 -15.3668 -5.04386 -11.834 0.0 0.0 -0.0 0.0 -0.0 56.3377 -77.0446 73.5763 8.24754 0.426329 1.19208 42.3174 -24.846 5.37957 -4.95221 0.0 0.0 0.0 0.0 0.0 
